<?xml version="1.0" standalone="no"?>
<!DOCTYPE svg PUBLIC "-//W3C//DTD SVG 1.1//EN" "http://www.w3.org/Graphics/SVG/1.1/DTD/svg11.dtd" >
<!--
2013-9-30: Created.
-->
<svg>
<metadata>
Created by iconfont
</metadata>
<defs>

<font id="iconfont" horiz-adv-x="1024" >
  <font-face
    font-family="iconfont"
    font-weight="500"
    font-stretch="normal"
    units-per-em="1024"
    ascent="896"
    descent="-128"
  />
    <missing-glyph />
    
    <glyph glyph-name="fenxiang" unicode="&#58902;" d="M886.29522 502.234981 746.156506 639.817476c-10.154267 9.996678-26.6428 9.996678-36.821627 0-10.17678-9.974166-10.17678-26.167986 0-36.153408l80.202647-78.753645c-182.839235 3.414773-351.067704-122.653481-409.782967-295.155277l48.175209-22.707165c51.79362 153.693428 224.251414 282.489816 389.177674 264.180821L709.788204 365.875337c-10.064216-9.906627-10.064216-25.965371 0-35.870975 10.086729-9.907651 26.440186-9.907651 36.525891 0l135.864364 133.431965c1.378393 0.904603 2.895957 1.459235 4.092201 2.657526C896.449487 476.045505 896.449487 492.238302 886.29522 502.234981zM824.276724 33.569952c0-22.379707-20.739347-40.528042-46.319955-40.528042L222.110145-6.95809c-25.580608 0-46.320978 18.148335-46.320978 40.528042L175.789167 519.935108c0 22.378683 20.74037 40.529065 46.320978 40.529065l231.603869 0 0 40.530089L175.789167 600.994262c-25.579585 0-46.320978-18.150382-46.320978-40.530089l0-567.423287c0-22.38073 20.741393-40.532135 46.320978-40.532135L824.276724-47.491249c25.581632 0 46.322002 18.151405 46.322002 40.532135L870.598726 236.222441 824.276724 236.222441 824.276724 33.569952z"  horiz-adv-x="1024" />

    
    <glyph glyph-name="shouye" unicode="&#58926;" d="M979.2 422.4l-19.2 0L531.2 838.4c-12.8 12.8-25.6 12.8-38.4 0L57.6 422.4 44.8 422.4C19.2 422.4 0 403.2 0 377.6l0-38.4c0-25.6 19.2-44.8 44.8-44.8l115.2 0L160 0c0-25.6 19.2-44.8 44.8-44.8l185.6 0c25.6 0 44.8 19.2 44.8 44.8l0 236.8 153.6 0L588.8 0c0-25.6 19.2-44.8 44.8-44.8l185.6 0c25.6 0 44.8 19.2 44.8 44.8L864 294.4l115.2 0c25.6 0 44.8 19.2 44.8 44.8L1024 377.6C1024 403.2 1004.8 422.4 979.2 422.4z"  horiz-adv-x="1024" />

    
    <glyph glyph-name="jifen" unicode="&#58906;" d="M433.68843 503.051296c101.861174 0 207.804288 22.402015 271.42708 65.115205l0-77.763622 58.948509 0L764.064018 660.668163c0 102.359862-170.169196 157.621732-330.275851 157.621732C273.676647 818.289895 103.412579 763.028025 103.412579 660.668163l0-464.692803c0-102.359862 170.16433-157.621732 330.275851-157.621732l0 58.843906c-168.174446 0-271.431945 57.555833-271.431945 98.777826L162.256485 335.671102c63.627657-42.613453 169.471033-65.12007 271.431945-65.12007l0 58.948509c-168.174446 0-271.431945 57.550967-271.431945 98.771745L162.256485 568.066764C225.884142 525.453311 331.827255 503.051296 433.68843 503.051296L433.68843 503.051296zM433.68843 759.445989c168.174446 0 271.42708-57.557049 271.42708-98.777826 0-41.221993-103.25385-98.772961-271.42708-98.772961-168.174446 0-271.431945 57.550967-271.431945 98.772961C162.256485 701.88894 265.613722 759.445989 433.68843 759.445989L433.68843 759.445989zM697.747098 470.789866c-146.266253 0-222.736937-56.258029-222.736937-111.819112l0-298.614061c0-55.556218 76.570421-111.815463 222.736937-111.815463 145.177655 0 221.544952 55.461345 222.741802 110.622262l0.099737 0L920.588637 358.970754C920.4889 414.531837 844.018216 470.789866 697.747098 470.789866L697.747098 470.789866zM697.747098 411.942311c108.137339 0 163.893031-37.140054 163.893031-52.971557s-55.755693-52.971557-163.893031-52.971557c-108.132473 0-163.893031 37.140054-163.893031 52.971557S589.613408 411.942311 697.747098 411.942311L697.747098 411.942311zM697.747098 7.385136c-108.132473 0-163.893031 37.140054-163.893031 52.971557l0 71.296497c37.339529-20.316041 92.207314-33.857231 163.893031-33.857231 71.690582 0 126.45863 13.541189 163.893031 33.857231l0-71.296497C861.640129 44.526406 805.884436 7.385136 697.747098 7.385136L697.747098 7.385136zM697.747098 156.744468c-108.132473 0-163.893031 37.140054-163.893031 52.971557l0 71.291632c37.339529-20.311176 92.207314-33.852366 163.893031-33.852366 71.690582 0 126.45863 13.541189 163.893031 33.852366l0-71.291632C861.640129 193.884522 805.884436 156.744468 697.747098 156.744468L697.747098 156.744468zM697.747098 156.744468"  horiz-adv-x="1024" />

    
    <glyph glyph-name="tuichu" unicode="&#58939;" d="M833.633836 344.903563 481.955218 344.903563c-16.207124 0-29.359678 13.019525-29.359678 29.322839 0 16.188704 13.057387 29.321816 29.359678 29.321816l359.371834 0-74.718749 74.719772c-11.435447 11.414981-11.473309 29.894867 0.057305 41.424458 11.453866 11.453866 30.124088 11.340279 41.407062 0.038886l109.329011-109.310591c5.555529-1.069355 10.881838-3.703345 15.196097-8.018627 6.681166-6.681166 9.468652-15.691377 8.399297-24.319895 1.069355-8.630564-1.718131-17.640776-8.399297-24.321942-4.314259-4.315282-9.640568-6.987135-15.196097-8.018627l-109.329011-109.309568c-11.281951-11.30037-29.953196-11.413957-41.407062 0.039909-11.530614 11.530614-11.491729 30.009478-0.057305 41.423435L833.633836 344.903563zM745.933425 657.67608l0 97.704253c0 43.2572-35.029818 78.230736-78.230736 78.230736l-508.36931 0c-43.181475 0-78.230736-35.011398-78.230736-78.230736l0-742.759641c0-43.256176 35.011398-78.230736 78.230736-78.230736l508.36931 0c43.181475 0 78.230736 35.050284 78.230736 78.230736l0 97.704253c0 16.188704-13.134135 29.321816-29.341259 29.321816-16.208147 0-29.341259-13.133112-29.341259-29.321816l0-78.230736c0-21.571295-17.600867-39.059598-38.925544-39.059598l-469.635123 0c-21.49557 0-38.943964 17.450441-38.943964 39.059598l0 703.852516c0 21.533432 17.600867 39.019689 38.943964 39.019689l469.635123 0c21.515013 0 38.925544-17.410532 38.925544-39.019689l0-78.269621c0-16.187681 13.133112-29.321816 29.341259-29.321816C732.79929 628.354264 745.933425 641.488399 745.933425 657.67608z"  horiz-adv-x="1024" />

    
    <glyph glyph-name="falv2" unicode="&#58907;" d="M1019.396777 296.155748c0 4.396623-1.221026 8.510043-3.347376 12.01527l-136.104968 276.495135c22.712017 12.465611 38.148947 36.59829 38.148947 64.282623 0 40.409935-32.879499 73.284791-73.289433 73.284791L596.150996 722.233567l0 76.929299c0 45.071191-36.66793 81.734478-81.734478 81.734478-45.071191 0-81.739121-36.663287-81.739121-81.734478l0-76.929299L184.029089 722.233567c-40.409935 0-73.289433-32.874856-73.289433-73.284791 0-28.185744 16.021908-52.666624 39.411757-64.923314L9.329477 306.666788c-0.157851-0.315703-0.269276-0.645333-0.413199-0.965679-0.148566-0.329631-0.292489-0.659261-0.427127-0.993535-0.487482-1.230312-0.896038-2.483837-1.165314-3.760575-0.032499-0.153209-0.041784-0.306417-0.06964-0.459626-0.24142-1.26281-0.357487-2.534906-0.385343-3.816287-0.004643-0.176422-0.05107-0.338916-0.05107-0.510695 0-0.278561 0.018571-0.55248 0.023213-0.831041 0-0.055712 0-0.111424 0.004643-0.167137 0.543194-95.541825 78.410315-173.102529 174.077493-173.102529 95.588252 0 173.399661 77.435352 174.068208 172.865752 0.023213 0.417842 0.125353 0.81247 0.125353 1.234954 0 4.396623-1.221026 8.510043-3.347376 12.01527L220.079542 575.663986l212.597855 0L432.677397 54.745387l-38.613215 0c-45.071191 0-81.739121-36.66793-81.739121-81.739121s36.66793-81.734478 81.739121-81.734478l240.70003 0c45.071191 0 81.739121 36.663287 81.739121 81.734478s-36.66793 81.739121-81.739121 81.739121l-38.613215 0L596.150996 575.663986l214.051015 0-136.583165-268.997198c-0.157851-0.306417-0.264633-0.631405-0.403914-0.942465-0.157851-0.343559-0.306417-0.682475-0.445698-1.035319-0.482839-1.225669-0.891396-2.465266-1.160671-3.737362-0.032499-0.157851-0.041784-0.320345-0.074283-0.482839-0.236777-1.258168-0.352844-2.525621-0.3807-3.797717-0.004643-0.176422-0.05107-0.338916-0.05107-0.515338 0-0.278561 0.018571-0.55248 0.023213-0.831041 0-0.055712 0-0.111424 0.004643-0.167137 0.543194-95.541825 78.410315-173.102529 174.077493-173.102529 95.597537 0 173.418232 77.453922 174.068208 172.898251C1019.294638 295.361848 1019.396777 295.747191 1019.396777 296.155748zM180.913847 168.481896c-62.476619 0-114.613977 45.10369-125.556787 104.460424l251.118216 0C295.527824 213.585586 243.390466 168.481896 180.913847 168.481896zM67.845885 319.369175l115.078246 226.651264 111.577661-226.651264L67.845885 319.369175zM670.08112-26.993734c0-19.46678-15.840843-35.307623-35.312266-35.307623L394.064181-62.301357c-19.471423 0-35.312266 15.840843-35.312266 35.307623 0 19.471423 15.840843 35.312266 35.312266 35.312266l240.70003 0C654.240277 8.318532 670.08112-7.522311 670.08112-26.993734zM572.937569 622.090841c-12.818455 0-23.213428-10.39033-23.213428-23.213428L549.724141 54.745387l-70.619889 0L479.104252 598.877413c0 12.823097-10.394973 23.213428-23.213428 23.213428L184.029089 622.090841c-14.810167 0-26.862578 12.052412-26.862578 26.857936 0 14.810167 12.047769 26.857936 26.862578 26.857936l271.861735 0c12.818455 0 23.213428 10.39033 23.213428 23.213428l0 100.142726c0 19.46678 15.840843 35.307623 35.312266 35.307623s35.307623-15.840843 35.307623-35.307623l0-100.142726c0-12.823097 10.394973-23.213428 23.213428-23.213428l271.861735 0c14.810167 0 26.862578-12.047769 26.862578-26.857936 0-14.805524-12.052412-26.857936-26.862578-26.857936L572.937569 622.090841zM847.218143 546.025081l111.573018-226.651264-226.651264 0L847.218143 546.025081zM845.203217 168.481896c-62.476619 0-114.61862 45.10369-125.561429 104.460424l251.122859 0C959.821837 213.585586 907.679836 168.481896 845.203217 168.481896z"  horiz-adv-x="1024" />

    
    <glyph glyph-name="kehufuwukefu" unicode="&#59032;" d="M233.984 364.544c6.656 0 11.776 5.12 11.776 11.776L245.76 593.408c0 3.072-1.536 6.144-3.584 8.704 51.712 97.792 155.648 160.256 268.8 160.256s217.088-62.464 268.8-160.768c-2.048-2.048-3.584-5.12-3.584-8.192l0-217.088c0-6.656 5.12-11.776 11.776-11.776 67.584 0 122.368 53.76 122.368 120.32 0 41.984-22.528 81.408-59.392 102.912-51.2 140.288-187.904 234.496-340.48 234.496S221.696 728.064 169.472 587.776C133.12 565.76 110.592 526.848 110.592 484.864 111.104 418.304 166.4 364.544 233.984 364.544zM755.712 262.144c-4.608 2.048-9.728 1.536-13.312-2.048-62.976-57.856-144.896-89.6-231.424-89.6-86.016 0-168.448 31.744-231.424 89.088-3.584 3.072-8.704 4.096-13.312 2.048-123.904-62.464-192.512-170.496-192.512-304.128 0-6.656 5.12-11.776 11.776-11.776l853.504 0c6.656 0 11.776 5.12 11.776 11.776C950.272 91.648 881.152 199.68 755.712 262.144zM885.248 3.584 141.824 3.584c13.824 90.624 76.288 156.672 129.536 187.904 71.68-51.712 147.456-74.752 244.224-74.752 84.48 0 178.176 31.744 240.64 81.408C825.856 157.696 878.592 76.8 885.248 3.584zM510.976 713.216c-138.752 0-251.904-110.592-251.904-246.784s113.152-247.296 251.904-247.296 251.392 111.104 251.392 247.296C762.368 602.624 649.728 713.216 510.976 713.216zM699.392 466.944c0-101.888-84.48-184.32-188.416-184.32s-188.416 82.944-188.416 184.32c0 99.84 86.528 184.32 188.416 184.32C614.4 651.264 699.392 568.832 699.392 466.944z"  horiz-adv-x="1024" />

    
    <glyph glyph-name="shouyi" unicode="&#58921;" d="M646.803 216.14l-118.431 0 0 42.565 118.431 0c10.85 0 19.648 8.798 19.648 19.648 0 10.851-8.798 19.648-19.648 19.648l-90.803 0 91.172 127.829c5.426 9.398 2.206 21.413-7.191 26.839-9.397 5.426-21.413 2.206-26.841-7.193l-104.415-146.401-104.418 146.4c-5.427 9.397-17.441 12.62-26.838 7.195-9.397-5.427-12.618-17.442-7.193-26.842l91.171-127.828-90.802 0c-10.851 0-19.648-8.797-19.648-19.648 0-10.85 8.797-19.648 19.648-19.648l118.431 0 0-42.565-118.431 0c-10.851 0-19.648-8.798-19.648-19.648 0-10.851 8.797-19.648 19.648-19.648l118.431 0 0-80.778c0-10.851 8.798-19.648 19.648-19.648s19.648 8.797 19.648 19.648l0 80.778 118.431 0c10.85 0 19.648 8.797 19.648 19.648 0.001 10.85-8.797 19.648-19.646 19.648zM645.973 563.789c7.034 9.762 11.381 19.468 11.381 19.468l62.217 165.913c0 21.701-17.594 39.295-39.295 39.295 0 0-0.466 0.484-4.124 0.484-1.83 0-4.458-0.122-8.225-0.484-11.301-1.091-36.789-44.172-66.787-44.172s-52.075 26.707-66.788 44.172c-6.979 8.284-16.615 11.901-26.661 11.901-11.136 0.001-22.775-4.442-31.873-11.901-17.305-14.19-36.787-44.172-66.787-44.172-29.996 0-56.165 42.807-66.787 44.172-3.54 0.454-6.093 0.607-7.922 0.607-3.66 0-4.428-0.607-4.428-0.607-21.701 0-44.025-17.465-39.295-39.295s66.583-165.913 66.583-165.913 5.26-11.728 13.565-22.371c-141.689-58.298-241.876-198.334-241.876-337.47 0-182.054 171.532-255.779 383.125-255.779 211.596 0 383.125 73.725 383.125 255.779 0.002 141.504-103.629 283.939-249.15 340.373zM393.099 599.211c-23.434 54.598-49.742 118.26-59.997 146.14 15.965-15.907 41.724-40.355 75.93-40.355 38.955 0 64.415 25.878 81.264 43.002 3.975 4.041 7.731 7.858 10.439 10.078 1.903 1.561 3.989 2.421 5.49 2.783 17.199-20.386 48.27-55.865 94.915-55.865 33.724 0 59.004 23.874 74.743 39.583l-54.779-146.076c-1.775-3.675-8.67-14.426-13.858-22.036-30.452 8.172-62.367 12.609-95.248 12.609-36.345 0-71.507-5.418-104.821-15.312-5.491 9.313-12.397 21.833-14.08 25.446zM831.266 126.771c-15.367-25.773-38.39-47.889-68.426-65.733-59.584-35.397-146.324-54.107-250.842-54.107s-191.257 18.711-250.842 54.107c-30.036 17.844-53.058 39.958-68.427 65.733-16.299 27.334-24.562 59.85-24.562 96.645 0 39.127 8.953 78.738 26.609 117.73 17.298 38.202 42.873 74.665 73.961 105.451 32.253 31.94 69.223 57.155 109.884 74.948 42.818 18.737 87.693 28.237 133.377 28.237s90.56-9.5 133.377-28.237c40.66-17.793 77.632-43.008 109.884-74.948 31.087-30.785 56.662-67.249 73.961-105.451 17.657-38.993 26.609-78.603 26.609-117.73 0-36.796-8.263-69.311-24.563-96.645z"  horiz-adv-x="1024" />

    
    <glyph glyph-name="peixun" unicode="&#58922;" d="M657.12969 448.559c-191.439 0-293.839-100.177-298.292-104.627-4.452-4.45-6.68-8.905-6.68-15.58l0-238.189c0-4.455 2.228-8.91 4.452-13.36 2.228-4.45 73.462-84.59 284.939-84.59 209.249 0 311.649 77.91 316.104 80.14 4.455 4.45 8.905 8.9 8.905 15.58L966.55769 328.351c0 6.675-2.23 11.13-6.68 15.58C955.42969 348.381 848.57469 448.559 657.12969 448.559zM924.25969 103.512c-26.71-17.805-120.205-66.78-282.709-66.78-160.277 0-229.287 48.975-247.094 64.56L394.45669 321.671c22.26 17.81 113.53 84.59 262.674 84.59 149.15 0 244.869-66.78 269.359-86.82l0-215.929L924.25969 103.512zM418.94069 116.872c0-71.235 211.479-73.46 233.739-73.46 24.49 0 233.739 2.225 233.739 73.46s-211.479 73.46-233.739 73.46C628.19269 190.332 418.94069 188.107 418.94069 116.872zM652.67969 85.707c-106.852 0-175.86 20.035-191.442 33.39 15.582 13.355 84.59 33.395 191.442 33.395 106.85 0 175.86-20.04 191.44-33.395C828.53969 103.512 759.52969 85.707 652.67969 85.707zM1258.17369 499.759 670.48969 791.375c-6.68 2.225-11.13 2.225-17.81 0L11.56869 504.211c-6.677-4.452-13.357-11.132-11.13-20.035 0-8.905 6.677-15.585 13.355-17.81l155.827-57.877c-2.227-2.227-2.227-4.452-2.227-8.905l0-102.402c-20.035-8.9-35.617-28.94-35.617-53.42 0-17.81 6.68-33.395 20.035-44.525 0-2.225-2.225-2.225-2.225-4.455l-24.487-117.98c-2.225-6.68 0-13.36 4.452-17.81 4.452-4.45 8.905-6.68 15.582-6.68l89.042 0c6.68 0 13.357 2.23 15.582 8.91 4.452 4.45 4.452 11.13 4.452 17.805l-26.712 117.985c15.582 11.13 24.487 28.94 24.487 48.97 0 26.715-17.81 48.98-42.295 57.88l0 93.497 117.982-42.297c2.225 0 4.45-2.225 6.677-2.225 6.677 0 11.13 2.225 15.582 6.675 2.225 2.23 126.887 129.115 304.977 129.115 180.31 0 311.649-129.115 313.874-129.115 6.675-6.675 15.585-6.675 22.26-4.45l267.129 111.305c6.68 2.228 13.355 11.13 13.355 17.81C1271.52869 488.626 1267.07869 495.306 1258.17369 499.759zM171.84669 92.382l17.81 82.37 17.807-80.14-35.617 0L171.84669 92.382zM191.88069 225.952c-8.905 0-17.807 8.9-17.807 17.81 0 8.9 8.902 17.805 17.807 17.805 8.905 0 17.81-8.905 17.81-17.805C209.69069 232.627 203.01069 225.952 191.88069 225.952zM986.58869 395.131c-35.615 31.165-162.5 131.34-331.679 131.34-169.187 0-291.619-100.175-325.012-133.565L76.12369 486.401l585.461 262.677 538.714-267.129L986.58869 395.131z"  horiz-adv-x="1273" />

    
    <glyph glyph-name="Close" unicode="&#58927;" d="M512 896c-282.813 0-512-229.187-512-512s229.187-512 512-512c282.813 0 512 229.187 512 512 0 282.813-229.187 512-512 512zM512-74.105c-252.632 0-458.105 205.474-458.105 458.105s205.474 458.105 458.105 458.105c252.632 0 458.105-205.474 458.105-458.105 0-252.632-205.474-458.105-458.105-458.105zM550.131 384l169.499 169.634c10.644 10.509 10.644 27.486 0 37.996-10.509 10.644-27.486 10.644-37.996 0l-169.634-169.499-169.634 169.499c-10.509 10.644-27.486 10.644-37.996 0-10.644-10.509-10.644-27.486 0-37.996l169.499-169.634-169.499-169.634c-10.644-10.509-10.644-27.486 0-37.996 5.255-5.255 12.126-7.949 18.998-7.949 6.872 0 13.743 2.695 18.998 7.949l169.634 169.499 169.634-169.499c5.255-5.255 12.126-7.949 18.998-7.949s13.743 2.695 18.998 7.949c10.644 10.509 10.644 27.486 0 37.996l-169.499 169.634z"  horiz-adv-x="1024" />

    
    <glyph glyph-name="huiyuan" unicode="&#59006;" d="M933.237561 555.61419c-4.68962 5.355769-15.550857 18.066151-29.865751 34.800205-43.093383 50.365452-115.195497 134.661899-148.391391 170.441241-13.7161 14.804363-30.776534 33.210084-63.823328 34.515598-2.406169 0.081545-9.733201 0.35396-102.38918 0.35396-105.339979 0-254.124903-0.33957-254.057749-0.33957-15.754918 0-39.775432-3.574776-66.243687-34.555371-19.412438-22.756771-49.563796-57.570167-80.082304-92.805878-38.87884-44.887366-78.327894-90.453872-96.870322-112.530504-32.230947-37.328691-33.033603-89.394191-2.107171-135.912451l2.053208-2.719156c36.513644-42.535361 115.9288-133.846052 209.727205-241.686736l145.795551-167.694703c26.929342-31.021168 48.190927-35.208129 65.441031-35.208129 18.121114 0 38.593234 4.268506 65.441031 35.194938l150.797359 173.472586c88.714052 101.995447 163.83432 188.357494 204.996812 236.290395C961.146039 450.397726 968.97613 512.522006 933.237561 555.61419zM891.096932 453.130074c-40.795341-47.497397-115.833865-133.777699-204.452981-235.650829l-150.81155-173.500167c-13.919962-16.027333-19.398248-16.027333-23.408529-16.027333-3.778838 0-9.488367 0-23.395138 16.027333l-145.822133 167.735475c-92.696752 106.577141-171.337833 196.990241-208.327754 240.041652-16.366903 25.420765-16.815599 49.29138-0.979136 67.629747 18.691327 22.239721 57.924127 67.548202 96.571525 112.177544 30.627634 35.358027 60.873728 70.293941 80.340329 93.104675 12.84609 15.034806 19.493983 15.034806 23.966351 15.034806 0 0 148.704378 0.33957 253.989395 0.33957 79.728344 0 97.087575-0.204062 100.283008-0.313188 8.659329-0.33957 11.949698-2.528486 25.094586-16.734054 32.435009-34.963295 104.102618-118.729501 146.909395-168.782965 14.504566-16.951307 25.5157-29.811788 29.784006-34.692079C907.137457 499.878778 903.889059 468.571804 891.096932 453.130074zM682.614084 501.176099l-170.78201-218.719908-170.561759 219.314505c-1.742019 2.740542-2.268262 2.740542-4.739587 2.740542l-83.213381 0 0-38.453529 1.998045 0c15.731534 0 21.56338-4.092026 28.017604-12.705386 0.633371-0.865014 1.377866-1.850146 2.862859-3.6871 37.509169-50.997823 184.517497-229.654694 226.009366-285.296169 41.478677 55.681248 188.393269 234.461635 226.4011 285.999892 0.918977 1.092259 1.634892 2.0644 2.268262 2.916023 6.494996 8.654132 12.341233 12.773739 28.003414 12.773739l1.890918 0 0 38.518884-82.915583 0C685.516716 504.577592 684.814991 504.577592 682.614084 501.176099z"  horiz-adv-x="1024" />

    
    <glyph glyph-name="tuijianren" unicode="&#58934;" d="M766.285824 244.559872c8.568832-12.435456 25.515008-15.514624 37.850112-6.889472 12.340224 8.628224 15.403008 25.704448 6.838272 38.136832-12.101632 17.568768-25.807872 33.973248-40.736768 48.75264-32.908288 32.575488-71.9104 57.283584-114.650112 73.202688 61.976576 39.678976 103.190528 109.461504 103.190528 188.771328 0 123.236352-99.50208 223.497216-221.80864 223.497216-122.304512 0-221.806592-100.260864-221.806592-223.497216 0-79.596544 41.515008-149.594112 103.866368-189.200384-47.254528-17.835008-89.792512-46.511104-124.809216-84.831232-60.839936-66.577408-94.347264-156.639232-94.347264-253.589504 0-1.60256-0.021504-5.000192-0.049152-9.317376-0.161792-24.260608-0.195584-38.351872 0.09728-43.329536 0.857088-14.553088 12.834816-25.752576 27.117568-25.752576 0.533504 0 1.071104 0.01536 1.609728 0.04608 14.984192 0.877568 26.426368 13.848576 25.570304 28.94848-0.24064 4.25984-0.0768 29.110272-0.004096 39.72096 0.027648 4.488192 0.053248 8.015872 0.053248 9.684992 0 83.160064 28.397568 160.03584 79.965184 216.467456 48.817152 53.421056 115.342336 84.373504 188.643328 88.121344 4.661248-0.294912 9.357312-0.462848 14.093312-0.462848 5.091328 0 10.1376 0.18944 15.143936 0.529408 69.446656-3.185664 131.438592-30.025728 180.004864-78.104576C744.6272 273.083392 756.122624 259.320832 766.285824 244.559872zM550.571008 418.44736c-4.170752 0.150528-8.351744 0.25088-12.552192 0.25088-4.678656 0-9.331712-0.118784-13.968384-0.30208-86.295552 6.675456-154.496 79.506432-154.496 168.138752 0 93.01504 75.101184 168.689664 167.41376 168.689664s167.41888-75.674624 167.41888-168.689664C704.387072 498.136064 636.542976 425.453568 550.571008 418.44736zM901.059584 82.794496c-0.037888 0.380928-0.108544 0.74752-0.161792 1.125376-0.070656 0.509952-0.132096 1.019904-0.231424 1.52576-0.08704 0.446464-0.207872 0.877568-0.319488 1.31584-0.106496 0.427008-0.19968 0.859136-0.32768 1.281024-0.130048 0.434176-0.290816 0.852992-0.442368 1.28-0.14848 0.416768-0.28672 0.837632-0.454656 1.250304-0.16384 0.400384-0.357376 0.780288-0.5376 1.169408-0.197632 0.420864-0.385024 0.845824-0.60416 1.260544-0.197632 0.371712-0.42496 0.72704-0.64 1.089536-0.24064 0.40448-0.467968 0.81408-0.729088 1.20832-0.26624 0.401408-0.561152 0.77824-0.847872 1.16224-0.244736 0.331776-0.472064 0.669696-0.733184 0.991232-0.569344 0.697344-1.169408 1.369088-1.800192 2.009088l-91.636736 92.332032c-10.624 10.698752-27.844608 10.698752-38.462464 0-10.621952-10.702848-10.621952-28.054528 0-38.756352l45.2096-45.551616L640.048128 107.487232c-15.020032 0-27.196416-12.266496-27.196416-27.40224 0-15.136768 12.176384-27.405312 27.196416-27.405312l168.887296 0-45.804544-46.152704c-10.621952-10.698752-10.621952-28.051456 0-38.752256 5.312512-5.352448 12.269568-8.026112 19.231744-8.026112 6.957056 0 13.92128 2.673664 19.231744 8.026112l91.636736 92.329984c5.38624 5.429248 8.029184 12.565504 7.950336 19.678208C901.193728 80.787456 901.157888 81.793024 901.059584 82.794496z"  horiz-adv-x="1024" />

    
    <glyph glyph-name="vip" unicode="&#58956;" d="M512.268258 777.934759L853.425824 580.967892v-393.93476L512.268258-9.934759 171.110692 187.032108V580.967892L512.268258 777.934759m0 53.621899L124.672373 607.778329v-447.556658l387.594861-223.778329 387.595885 223.778329V607.778329L512.268258 831.556658zM296.883741 511.059049l57.55669-202.715983c6.516006 25.294063 14.117331 53.659782 22.804998 85.096133s19.78556 71.001328 33.302894 118.705169h49.592909L386.294527 255.853584h-64.796583c-14.722447 51.810645-28.359576 98.683091-40.905242 140.617339-12.550786 41.929128-24.253796 80.12517-35.113124 114.588126h51.404163zM492.357784 511.782936h46.696338v-255.928328h-46.696338V511.782936zM587.922121 511.782936h100.633593c26.301566 0 47.964932-7.629993 64.97781-22.88998 17.013902-15.259987 25.521366-35.740765 25.521366-61.453597 0-15.379781-3.512951-29.315885-10.526565-41.810357-9.434079-16.583871-22.743565-28.235686-39.914122-34.965684-13.066825-5.045707-31.092326-7.56856-54.078551-7.568561H635.342346v-87.240149h-47.420225V511.782936z m96.115187-129.23071c14.049754 0 25.191675 4.581887 33.426784 13.755899 8.23511 9.168893 12.358296 20.870878 12.358296 35.113124 0 13.269554-4.728302 23.224791-14.174669 29.864687-9.446366 6.634777-20.955861 9.955237-34.519269 9.955237h-45.787128v-88.687923h48.695986z"  horiz-adv-x="1024" />

    
    <glyph glyph-name="zhangdan" unicode="&#58890;" d="M920.456 800.256H700.44V852.12a31.152 31.152 0 1 1-62.304 0v-51.864H385.888V852.12a31.144 31.144 0 1 1-62.304 0v-51.864H103.544C46.448 800.256 0 753.808 0 696.712v-721.168C0-81.544 46.448-128 103.544-128h816.912c57.104 0 103.544 46.456 103.544 103.544V696.712c0 57.096-46.448 103.544-103.544 103.544z m41.248-824.712a41.288 41.288 0 0 0-41.248-41.248H103.544a41.304 41.304 0 0 0-41.248 41.248V696.712a41.288 41.288 0 0 0 41.248 41.248h220.048v-52.656a31.144 31.144 0 1 1 62.304 0v52.656h252.256v-52.656a31.152 31.152 0 1 1 62.304 0v52.656h220.016a41.288 41.288 0 0 0 41.248-41.248v-721.168zM789.752 479.096H209.616a31.144 31.144 0 1 1 0-62.304h580.136a31.144 31.144 0 1 1 0 62.304zM505.584 280.512H209.616c-17.2 0-31.152-13.92-31.152-31.144s13.944-31.16 31.152-31.16h295.968a31.152 31.152 0 1 1 0 62.304z"  horiz-adv-x="1024" />

    
    <glyph glyph-name="shouye1" unicode="&#58901;" d="M843.51176-128H707.69576c-41.736 0-75.68 33.144-75.68 73.856V186.344c0 15.6-12.616 28.312-28.168 28.312H422.35976c-15.544 0-28.192-12.712-28.192-28.312v-240.488c0-40.72-33.128-73.856-73.832-73.856H186.51976c-40.704 0-73.832 33.144-73.832 73.856l0.192 448.16H30.54376a30.56 30.56 0 0 0-28.008 18.352 30.504 30.504 0 0 0 5.64 32.976l484.88 441.344c11.576 12.408 33.176 12.408 44.744 0l481.648-437.832a30.424 30.424 0 0 0 12.048-24.296 30.52 30.52 0 0 0-31.136-30.544h-82.328v-448.16c-0.008-40.712-33.448-73.856-74.52-73.856zM422.35976 275.752h181.496c49.216 0 89.256-40.096 89.256-89.408v-240.488c0-6.68 6.944-12.768 14.584-12.768h135.816c7.4 0 13.424 5.728 13.424 12.768V424.56a30.52 30.52 0 0 0 30.544 30.528h42.752L515.42376 821.04 100.67176 455.096h42.776a30.56 30.56 0 0 0 30.552-30.56l-0.208-478.704c0-7.008 5.712-12.736 12.736-12.736h133.816c7.024 0 12.736 5.728 12.736 12.768v240.48c0 49.312 40.04 89.408 89.28 89.408z"  horiz-adv-x="1031" />

    
    <glyph glyph-name="shuoming" unicode="&#58941;" d="M512 832C264.58 832 64 631.42 64 384s200.58-448 448-448 448 200.58 448 448S759.42 832 512 832z m0-832c-212.08 0-384 171.92-384 384s171.92 384 384 384 384-171.92 384-384-171.92-384-384-384zM512 592a32 32 0 1 1 32-32 32 32 0 0 1-32 32z m0-96a32 32 0 0 1-32-32v-256a32 32 0 0 1 64 0V464a32 32 0 0 1-32 32z"  horiz-adv-x="1024" />

    
    <glyph glyph-name="web__guanyuwomen" unicode="&#58940;" d="M884.317-17.205v0.628c0 1.196-0.466 2.884-1.004 4.838-0.168 0.609-0.337 1.219-0.498 1.83l-0.188 0.719-0.097 0.737c-8.523 64.906-33.943 126.708-73.511 178.723-39.07 51.359-90.867 91.891-149.796 117.214l-19.726 8.477 17.724 12.116c70.815 48.404 113.093 128.444 113.093 214.102 0 69.257-26.965 134.36-75.927 183.316-48.965 48.96-114.085 75.922-183.364 75.922-69.258 0-134.369-26.963-183.337-75.922-48.97-48.96-75.94-114.064-75.94-183.316 0-85.649 42.306-165.717 113.17-214.183l17.71-12.115-19.714-8.475c-57.898-24.894-108.995-64.602-147.763-114.833-39.197-50.786-64.897-111.257-74.322-174.875l-0.248-1.676-0.71-1.54c-1.644-3.56-2.519-7.09-2.606-10.5l0.37-3.485v-0.626c0-14.802 12.045-26.844 26.85-26.844 14.654 0 26.604 11.8 26.846 26.396l2.434 12.71c23.649 152.985 151.232 266.355 307.197 271.184l0.322 0.01 0.323-0.008c1.675-0.038 3.241-0.14 4.755-0.239 1.65-0.106 3.21-0.208 4.663-0.208 1.454 0 3.029 0.102 4.695 0.209 1.52 0.098 3.092 0.2 4.763 0.238l0.323 0.009 0.322-0.01c155.968-4.829 283.559-118.199 307.213-271.185l2.654-12.262c0-14.802 12.045-26.844 26.849-26.844 14.616 0 26.541 11.735 26.847 26.274l-0.372 3.494zM510.985 316.642c-113.292 0-205.463 92.137-205.463 205.39 0 113.29 92.17 205.458 205.463 205.458 113.26 0 205.403-92.168 205.403-205.458 0-113.253-92.144-205.39-205.403-205.39z"  horiz-adv-x="1024" />

    
    <glyph glyph-name="baoxiandingdan" unicode="&#59541;" d="M273.728 491.947c0.128 11.733 9.6 22.037 21.291 23.040l36.587 3.115c46.997 3.989 115.627 30.123 153.472 58.517l11.968 8.96c9.387 7.040 25.323 7.701 35.413 1.643l29.952-17.963c40.427-24.256 111.296-47.637 158.123-52.203l18.645-1.813c11.691-1.131 21.056-11.52 20.949-23.296l-0.512-51.307c-1.344-134.549-103.445-284.032-228.523-334.059l-17.088-6.827-17.109 6.827c-124.864 49.963-225.003 199.253-223.68 334.080l0.512 51.285zM315.883 440.235c-1.152-117.12 88.256-250.581 196.864-294.037l1.259-0.491 1.259 0.491c108.928 43.584 200.533 177.536 201.685 294.869l0.341 33.451c-54.059 5.269-131.008 30.656-176.853 58.155l-23.787 14.293-5.973-4.48c-44.203-33.173-120.448-62.229-175.445-66.901l-19.008-1.621-0.341-33.728zM298.667 768.043c0 23.552 19.157 42.624 42.453 42.624h341.76c23.424 0 42.453-19.157 42.453-42.624v-42.752c-0.012-23.476-18.991-42.515-42.443-42.624l-341.77-0c-23.424 0-42.453 19.157-42.453 42.624v42.752zM341.333 725.333h341.333v42.667h-341.333v-42.667zM236.16 768v-42.667s-65.493-0.021-65.493-0.107v-725.227s682.667-0.043 682.667 0.107c0 0 0 725.227-0.128 725.227h-63.296v42.667h63.296c23.637 0 42.795-19.072 42.795-42.773v-725.12c0-23.616-18.987-42.773-42.667-42.773h-682.667c-0-0-0-0-0-0-23.564 0-42.667 19.103-42.667 42.667 0 0.038 0 0.075 0 0.112l-0 725.114c0 23.616 19.115 42.773 42.752 42.773h65.408zM441.472 356.693l49.685-47.893 89.643 110.016c3.942 4.808 9.882 7.851 16.533 7.851 11.782 0 21.334-9.551 21.334-21.334 0-5.131-1.812-9.84-4.83-13.52l-104.269-127.963c-3.942-4.808-9.882-7.851-16.533-7.851-5.753 0-10.975 2.277-14.812 5.98l-66.362 63.994c-4.027 3.886-6.528 9.331-6.528 15.36 0 11.782 9.551 21.334 21.334 21.334 5.753 0 10.975-2.277 14.812-5.98z"  horiz-adv-x="1024" />

    
    <glyph glyph-name="qianbao" unicode="&#58950;" d="M838.2236444444444 725.7581037037037H183.55714761007408c-37.72654356859259 0-66.57625414162963-28.849710573037036-66.57625414162963-66.57625414162963v-550.3636991241481c0-37.72654356859259 28.849710573037036-66.57625414162963 66.57625414162963-66.57625414162963h654.6664968343704c37.72654356859259 0 66.57625414162963 28.849710573037036 66.57625414162963 66.57625414162963V659.181849562074c0 35.50733562311111-31.06891851851852 66.57625414162963-66.57625414162963 66.57625414162963z m22.19208430933333-461.5953606731851H498.68474868622224c-8.876834209185184 0-17.75366720474074 6.657625050074073-17.75366720474074 17.75366720474074v208.6055966340741c0 8.876834209185184 6.657625050074073 17.75366720474074 17.75366720474074 17.75366720474074h261.8665994619259c13.315251313777777 0 22.19208430933333 8.876834209185184 22.19208430933333 22.19208430933333s-8.876834209185184 22.19208430933333-22.19208430933333 22.19208552296296H498.68474868622224c-33.288126464 0-62.13783703703704-26.630501413925924-62.13783703703704-62.13783703703704v-208.6055966340741c0-33.288126464 26.630501413925924-62.13783703703704 62.13783703703704-62.13783703703704h361.73098006755555v-110.9604227602963c0-13.315251313777777-8.876834209185184-22.19208430933333-22.19208430933333-22.19208430933333H183.55714761007408c-13.315251313777777 0-22.19208430933333 8.876834209185184-22.19208552296296 22.19208430933333V659.181849562074c0 13.315251313777777 8.876834209185184 22.19208430933333 22.19208552296296 22.19208430933333h654.6664968343704c13.315251313777777 0 22.19208430933333-8.876834209185184 22.19208430933333-22.19208430933333v-395.0191065315555zM580.7954620871111 457.2338791917037c-39.9457527277037 0-73.2338791917037-33.288126464-73.2338791917037-73.2338791917037s33.288126464-73.2338791917037 73.2338791917037-73.2338791917037c39.9457527277037 0 73.2338791917037 33.288126464 73.2338791917037 73.2338791917037s-33.288126464 73.2338791917037-73.2338791917037 73.2338791917037z m0-102.08358976474075c-15.53445925925926 0-28.849710573037036 13.315251313777777-28.84970935940741 28.849710573037036s13.315251313777777 28.849710573037036 28.84970935940741 28.849710573037036 28.849710573037036-13.315251313777777 28.849710573037036-28.849710573037036-13.315251313777777-28.849710573037036-28.849710573037036-28.849710573037036z"  horiz-adv-x="1024" />

    
    <glyph glyph-name="dizhi" unicode="&#58884;" d="M512.706-94.405H512c-16.62 0-32.696 6.894-44.108 18.916-9.013 9.441-90.886 95.915-172.292 205.435-109.92 147.88-165.654 265.774-165.654 350.408 0 210.665 171.389 382.054 382.054 382.054 210.662 0 382.048-171.388 382.048-382.053 0-51.21-19.694-113.914-58.537-186.374-37.454-69.867-93.787-151.036-167.436-241.25l-0.611-0.725-109.623-125.58c-11.617-13.254-28.055-20.831-45.136-20.831z m-0.704 899.31c-178.958 0-324.552-145.593-324.552-324.551 0-70.993 53.357-180.3 154.3-316.104 80.719-108.593 164.276-196.408 167.794-200.092a3.31 3.31 0 0 1 2.458-1.06h0.704c0.255 0 1.075 0.299 1.854 1.188l109.275 125.18c71.17 87.21 125.334 165.157 160.996 231.683 34.316 64.015 51.716 117.579 51.716 159.206 0 178.957-145.59 324.55-324.545 324.55z m0-503.395c-98.615 0-178.844 80.229-178.844 178.844 0 98.614 80.229 178.843 178.844 178.843s178.843-80.229 178.843-178.843c0-98.615-80.229-178.844-178.843-178.844z m0 300.184c-66.907 0-121.341-54.433-121.341-121.34 0-66.907 54.434-121.34 121.34-121.34 66.908 0 121.34 54.433 121.34 121.34 0 66.907-54.432 121.34-121.34 121.34z"  horiz-adv-x="1024" />

    
    <glyph glyph-name="list_kucunmingxichaxun" unicode="&#58993;" d="M421.546667 401.066667h204.8c13.653333 0 25.6 5.12 25.6 15.36v10.24c0 8.533333-11.946667 13.653333-25.6 13.653333h-204.8c-13.653333 0-25.6-5.12-25.6-13.653333v-10.24c0-8.533333 10.24-15.36 25.6-15.36z m349.866666 361.813333h-34.133333v-51.2h68.266667v-443.733333h51.2v409.6c0 47.786667-39.253333 85.333333-85.333334 85.333333z m-349.866666-223.573333h273.066666c13.653333 0 25.6 5.12 25.6 15.36v10.24c0 8.533333-11.946667 15.36-25.6 15.36h-273.066666c-13.653333 0-25.6-5.12-25.6-15.36v-10.24c0-10.24 10.24-15.36 25.6-15.36z m179.2-476.16h-375.466667v648.533333h529.066667v51.2h-494.933334c-47.786667 0-85.333333-37.546667-85.333333-85.333333v-580.266667c0-47.786667 37.546667-85.333333 85.333333-85.333333h341.333334v51.2z m-179.2 199.68h136.533333c13.653333 0 25.6 5.12 25.6 15.36v10.24c0 8.533333-11.946667 15.36-25.6 15.36h-136.533333c-13.653333 0-25.6-5.12-25.6-15.36v-10.24c0-8.533333 10.24-15.36 25.6-15.36zM329.386667 581.973333c-11.946667 0-22.186667-10.24-22.186667-22.186666 0-11.946667 10.24-22.186667 22.186667-22.186667 11.946667 0 22.186667 10.24 22.186666 22.186667 0 11.946667-10.24 22.186667-22.186666 22.186666z m0-138.24c-11.946667 0-22.186667-10.24-22.186667-22.186666 0-11.946667 10.24-22.186667 22.186667-22.186667 11.946667 0 22.186667 10.24 22.186666 22.186667 0 11.946667-10.24 22.186667-22.186666 22.186666z m0-134.826666c-11.946667 0-22.186667-10.24-22.186667-22.186667 0-11.946667 10.24-22.186667 22.186667-22.186667 11.946667 0 22.186667 10.24 22.186666 22.186667 0 11.946667-10.24 22.186667-22.186666 22.186667z m498.346666-225.28c11.946667 20.48 20.48 44.373333 20.48 69.973333 0 71.68-58.026667 131.413333-131.413333 131.413333-71.68 0-131.413333-58.026667-131.413333-131.413333 0-71.68 58.026667-131.413333 131.413333-131.413333 25.6 0 49.493333 6.826667 69.973333 20.48l56.32-56.32c8.533333-8.533333 23.893333-8.533333 32.426667 0l8.533333 8.533333c8.533333 8.533333 8.533333 23.893333 0 32.426667l-56.32 56.32z m-110.933333-23.893334c-52.906667 0-95.573333 42.666667-95.573333 95.573334s42.666667 95.573333 95.573333 95.573333 95.573333-42.666667 95.573333-95.573333c-1.706667-52.906667-44.373333-95.573333-95.573333-95.573334z"  horiz-adv-x="1024" />

    
    <glyph glyph-name="kefujingli-" unicode="&#58974;" d="M1015.878075 158.424249a25.572909 25.572909 0 0 1 0 36.441395 26.212231 26.212231 0 0 1-36.441395 0l-266.597573-263.400959-159.191356 155.35542a24.294263 24.294263 0 0 1-33.884104 0 23.015618 23.015618 0 0 1 0-33.244781l177.731715-174.535102a23.654941 23.654941 0 0 1 17.261713-7.03255 26.212231 26.212231 0 0 1 19.179682 7.671872z m0 0M838.785683 150.113054a467.984229 467.984229 0 0 1-255.729087 177.092393A301.760323 301.760323 0 0 1 457.11002 894.92402a301.760323 301.760323 0 0 1-150.240838-575.390446A463.50897 463.50897 0 0 1 0.6336-28.897307a32.605459 32.605459 0 0 1 31.966136-38.998686 21.736972 21.736972 0 0 1 21.736972 17.901036 409.805862 409.805862 0 0 0 734.581803 166.223907 29.408845 29.408845 0 0 1 30.048167-11.507809 28.769522 28.769522 0 0 1 19.819005 45.391913zM500.583965 348.942419a242.942633 242.942633 0 0 0-56.899722-7.671872A278.105382 278.105382 0 0 0 384.22723 345.106483a255.729087 255.729087 0 0 0-145.126256 86.947889A251.893151 251.893151 0 0 0 456.470698 843.778202a251.893151 251.893151 0 0 0 225.041596-319.661358A250.614505 250.614505 0 0 0 639.956317 447.398118a255.729087 255.729087 0 0 0-139.372352-98.455699z"  horiz-adv-x="1024" />

    
    <glyph glyph-name="wenhao" unicode="&#58629;" d="M512 839.111c-250.311 0-455.111-204.8-455.111-455.111S261.689-71.111 512-71.111 967.111 133.689 967.111 384 762.311 839.111 512 839.111m0-853.333c-221.867 0-398.222 176.355-398.222 398.222S290.133 782.222 512 782.222 910.222 605.867 910.222 384 733.867-14.222 512-14.222M506.311 213.333c-17.067 0-28.444-5.689-39.822-17.066-11.378-11.378-17.067-22.756-17.067-39.823 0-17.066 5.69-28.444 17.067-39.822 11.378-11.378 22.755-17.066 39.822-17.066 17.067 0 28.445 5.688 39.822 17.066C557.511 128 563.2 139.378 563.2 156.444c0 17.067-5.689 28.445-17.067 39.823-11.377 11.377-22.755 17.066-39.822 17.066z m17.067 466.49c-56.89 0-102.4-17.067-136.534-51.2-39.822-34.134-56.888-79.645-56.888-136.534h85.333c0 34.133 5.689 62.578 22.755 79.644 17.067 22.756 39.823 34.134 79.645 34.134 28.444 0 51.2-5.69 68.267-22.756 17.066-17.067 22.755-39.822 22.755-62.578 0-22.755-5.689-39.822-22.755-56.889l-17.067-17.066c-45.511-45.511-79.645-79.645-91.022-102.4-11.378-17.067-11.378-45.511-11.378-73.956v-11.378h85.333v11.378c0 17.067 5.69 34.134 11.378 51.2 5.689 17.067 17.067 28.445 34.133 39.822 39.823 34.134 62.578 51.2 68.267 62.578 22.756 22.756 28.444 56.89 28.444 96.711 0 45.511-17.066 85.334-45.51 113.778-34.134 34.133-73.956 45.511-125.156 45.511z"  horiz-adv-x="1024" />

    
    <glyph glyph-name="wuliaobaozhuangdan" unicode="&#58903;" d="M983.91028 638.28544199a24.35515799 24.35515799 0 0 1 0 4.96123602 24.80618 24.80618 0 0 1 0 5.41225699l-3.15715001 4.059193-4.51021499 3.15715001L523.41738 893.112561a25.257201 25.257201 0 0 1-23.453115 0L53.453031 659.4834500100001l-4.510215-3.15715001-3.15714999-3.608172a24.80618 24.80618 0 0 1 0-5.412257 24.80618 24.80618 0 0 1 0-4.961236v-445.15817a24.80618 24.80618 0 0 1 4.961236-23.002094l446.962256-295.870071 5.86327899-2.706128h12.6286l5.863279 2.706128 451.021449 295.870071a24.80618 24.80618 0 0 1 11.275536 20.74698699V638.28544199zM511.690823 842.59815801l394.643768-206.11680201L806.207829 580.1036750000001l-279.182277 158.308529a25.257201 25.257201 0 0 1-24.80618 0L382.698688 670.307965a24.80618 24.80618 0 0 1 0-45.102145l248.061797-146.13094999-118.618641-66.75117401-394.643768 224.15766z m270.612869-333.755872v-146.13094901l-75.771603-45.102145V465.544227z m-101.930847 0L445.39067001 648.658935l69.45730299 39.238866 241.74749701-135.306434zM89.985768 594.08534l396.44785401-222.804596v-427.56833401l-396.44785401 262.49448402zM535.59496-56.28759001000003v427.56833401l119.971705 67.202196v-165.524872a25.257201 25.257201 0 0 1 12.62860099-21.649029 25.257201 25.257201 0 0 1 25.25720101 0l126.286006 75.320582a25.257201 25.257201 0 0 1 12.177579 21.64902899v189.42900901l100.126761 56.377681v-387.87844601z"  horiz-adv-x="1024" />

    
    <glyph glyph-name="wode" unicode="&#58908;" d="M512 778.666667c98.133333 0 179.2-81.066667 179.2-179.2 0-98.133333-81.066667-179.2-179.2-179.2s-179.2 81.066667-179.2 179.2c0 98.133333 81.066667 179.2 179.2 179.2M608 277.333333c64 0 125.866667-25.6 170.666667-72.533333 46.933333-46.933333 74.666667-110.933333 72.533333-181.333333v-14.933334c-32-21.333333-174.933333-21.333333-245.333333-21.333333h-192c-81.066667 0-215.466667 0-245.333334 19.2V21.333333c2.133333 142.933333 113.066667 256 247.466667 256h192M512 832c-128 0-232.533333-104.533333-232.533333-232.533333S384 366.933333 512 366.933333s232.533333 104.533333 232.533333 232.533334S640 832 512 832z m96-501.333333h-192c-164.266667 0-298.666667-136.533333-298.666667-305.066667v-19.2c0-68.266667 132.266667-68.266667 298.666667-68.266667h192c164.266667 0 298.666667 2.133333 298.666667 68.266667v19.2c0 168.533333-134.4 305.066667-298.666667 305.066667z"  horiz-adv-x="1024" />

    
    <glyph glyph-name="fenlei" unicode="&#58909;" d="M711.5-1.1c-104.2 0-189 84.8-189 189s84.8 189 189 189 189-84.8 189-189-84.8-189-189-189z m0 336c-81 0-147-65.9-147-147 0-81 66-147 147-147s147 66 147 147c0 81.1-66 147-147 147zM375.5 419.5h-168c-57.9 0-105 47.1-105 105v168c0 57.9 47.1 105 105 105h168c57.9 0 105-47.1 105-105v-168c0-57.9-47.1-105-105-105z m-168 336c-34.7 0-63-28.3-63-63v-168c0-34.7 28.3-63 63-63h168c34.7 0 63 28.3 63 63v168c0 34.7-28.3 63-63 63h-168zM375.5-0.5h-168c-57.9 0-105 47.1-105 105v168c0 57.9 47.1 105 105 105h168c57.9 0 105-47.1 105-105v-168c0-57.9-47.1-105-105-105z m-168 336c-34.7 0-63-28.3-63-63v-168c0-34.7 28.3-63 63-63h168c34.7 0 63 28.3 63 63v168c0 34.7-28.3 63-63 63h-168zM795.5 419.5h-168c-57.9 0-105 47.1-105 105v168c0 57.9 47.1 105 105 105h168c57.9 0 105-47.1 105-105v-168c0-57.9-47.1-105-105-105z m-168 336c-34.7 0-63-28.3-63-63v-168c0-34.7 28.3-63 63-63h168c34.7 0 63 28.3 63 63v168c0 34.7-28.3 63-63 63h-168zM900.5-21.5c-5.4 0-10.7 2.1-14.8 6.2L855 15.3c-8.2 8.2-8.2 21.5 0 29.7s21.5 8.2 29.7 0l30.6-30.6c8.2-8.2 8.2-21.5 0-29.7-4.1-4.2-9.4-6.2-14.8-6.2z"  horiz-adv-x="1024" />

    
    <glyph glyph-name="zuijingengxin" unicode="&#58910;" d="M162.909091 58.181818h744.727273v-186.181818H162.909091zM814.545455-128H162.909091a46.545455 46.545455 0 0 0-46.545455 46.545455V849.454545a46.545455 46.545455 0 0 0 46.545455 46.545455h651.636364a46.545455 46.545455 0 0 0 46.545454-46.545455v-930.90909a46.545455 46.545455 0 0 0-46.545454-46.545455z m0 977.454545H162.909091v-744.727272h651.636364V849.454545z m0-791.272727H162.909091v-139.636363h651.636364v139.636363z m-349.09091-46.545454h46.545455a23.272727 23.272727 0 0 0 0-46.545455h-46.545455a23.272727 23.272727 0 0 0 0 46.545455z m0.93091 656.965818a24.878545 24.878545 0 0 0 5.143272 10.798545 25.483636 25.483636 0 0 0 34.397091 0 24.878545 24.878545 0 0 0 5.143273-10.798545l111.057454-127.301818a26.949818 26.949818 0 0 0 0-34.513455 19.409455 19.409455 0 0 0-30.114909 0L512 598.504727V267.636364a23.272727 23.272727 0 0 0-46.545455 0V598.504727l-80.011636-91.717818a19.409455 19.409455 0 0 0-30.114909 0 26.949818 26.949818 0 0 0 0 34.513455z"  horiz-adv-x="1024" />

    
    <glyph glyph-name="shangcheng" unicode="&#58897;" d="M923.584-64H299.296a35.68 35.68 0 1 0 0 71.344h587.856V760.656H136.848v-711.232a36.432 36.432 0 0 0-72.848 0V796.336A35.696 35.696 0 0 0 100.416 832h823.152A35.696 35.696 0 0 0 960 796.336v-824.672A36.64 36.64 0 0 0 923.584-64zM512 384a287.04 287.04 0 0 0-288 284.8 35.552 35.552 0 0 0 71.104 0 216.896 216.896 0 0 1 433.776 0 35.552 35.552 0 0 0 71.104 0A287.04 287.04 0 0 0 512 384z"  horiz-adv-x="1024" />

    
    <glyph glyph-name="jifenshangcheng" unicode="&#59095;" d="M958.615 532.038c0 63.861-52.785 115.8-117.674 115.8H579.425l134.331 132.205c11.903 11.683 11.903 30.57 0 42.254-11.862 11.683-31.03 11.683-42.933 0L511.034 665.05 353.156 820.416c-11.864 11.683-31.07 11.683-42.933 0a29.535 29.535 0 0 1 0-42.258l132.44-130.35H183.036c-64.886 0-117.65-51.939-117.65-115.801 0-57.016 42.174-104.262 97.408-113.796v-391.62c0-49.43 36.982-89.651 82.423-89.651h533.605c45.42 0 82.423 40.221 82.423 89.65V418.24c55.173 9.506 97.37 56.751 97.37 113.798z m-832.545 0c0 30.901 25.558 56.033 56.947 56.033h298.598v-112.065H183.017c-31.389 0-56.947 25.132-56.947 56.032z m652.711-535.332H245.195c-11.564 0-21.694 13.985-21.694 29.885V416.24h258.114v-167.287c0-16.527 13.596-29.884 30.354-29.884 16.78 0 30.375 13.357 30.375 29.884V416.241h258.134v-389.65c0-15.9-10.151-29.885-21.697-29.885z m62.16 479.3H542.343V588.071h298.598c31.41 0 56.945-25.133 56.945-56.033 0-30.9-25.535-56.032-56.945-56.032z"  horiz-adv-x="1024" />

    
    <glyph glyph-name="tousujianyi" unicode="&#58895;" d="M859.2 499.4c-15.9 0-28.8-12.9-28.8-28.8v-379.4c0-11.3-9.2-20.5-20.5-20.5H216.8c-11.3 0-20.5 9.2-20.5 20.5V684.3c0 11.3 9.2 20.5 20.5 20.5h388c15.9 0 28.8 12.9 28.8 28.8s-12.9 28.8-28.8 28.8h-388c-43.1 0-78.1-35-78.1-78.1v-593.1c0-43.1 35-78.1 78.1-78.1h593.1c43.1 0 78.1 35 78.1 78.1V470.6c0 15.9-12.9 28.8-28.8 28.8zM329.9 204.4c5.6-5.6 13-8.4 20.4-8.4 7.4 0 14.7 2.8 20.4 8.4l508.9 508.9c11.3 11.3 11.3 29.5 0 40.8-11.3 11.3-29.5 11.3-40.8 0l-508.9-509c-11.2-11.2-11.2-29.5 0-40.7z"  horiz-adv-x="1024" />

    
    <glyph glyph-name="tongji" unicode="&#58896;" d="M488.96-64c74.24 0 145.92 17.92 209.92 53.76 10.24 5.12 17.92 15.36 17.92 28.16 0 12.8-5.12 23.04-15.36 30.72-10.24 5.12-23.04 5.12-33.28 0-53.76-30.72-115.2-46.08-179.2-46.08-202.24 0-366.08 163.84-366.08 366.08 0 192 145.92 348.16 332.8 366.08v-366.08c0-17.92 15.36-33.28 33.28-33.28h401.92c17.92 0 33.28 15.36 33.28 33.28 0 238.08-194.56 432.64-432.64 432.64-238.08 0-435.2-194.56-435.2-432.64-2.56-238.08 192-432.64 432.64-432.64z m366.08 465.92h-332.8v332.8c176.64-15.36 314.88-156.16 332.8-332.8z m0 0M819.2 207.36c-7.68-17.92-17.92-35.84-30.72-51.2-10.24-15.36-7.68-35.84 7.68-46.08 15.36-10.24 35.84-7.68 46.08 7.68 12.8 20.48 25.6 38.4 35.84 61.44 7.68 15.36 2.56 35.84-15.36 43.52-15.36 7.68-35.84 2.56-43.52-15.36z m0 0"  horiz-adv-x="1024" />

    
    <glyph glyph-name="mima" unicode="&#58904;" d="M907.878571-128H104.721237A53.725867 53.725867 0 0 0 51.200171-74.103467v485.034667c0 29.7984 23.9616 53.930667 53.5552 53.930667h80.315733V572.586667C185.071104 751.274667 328.908971 896 506.299904 896c177.425067 0 321.262933-144.759467 321.262933-323.3792v-107.793067h80.315734c29.5936 0 53.5552-24.098133 53.5552-53.896533v-485.034667c0-29.764267-23.9616-53.896533-53.5552-53.896533zM774.007637 572.6208c0 148.821333-119.808 269.482667-267.707733 269.482667-147.831467 0-267.707733-120.6272-267.707733-269.482667v-107.793067h535.415466V572.6208z m133.870934-161.6896H104.755371v-485.034667h803.1232v485.034667z m-401.578667-107.758933c14.779733 0 26.794667-12.0832 26.794667-26.965334v-215.586133c0-14.848-12.014933-26.965333-26.794667-26.965333a26.862933 26.862933 0 0 0-26.760533 26.965333v215.586133c0 14.882133 11.9808 26.965333 26.760533 26.965334z"  horiz-adv-x="1024" />

    
    <glyph glyph-name="RectangleCopy" unicode="&#59048;" d="M507.050667 725.333333c85.546667 0 155.178667-61.696 155.178666-137.514666v-92.544H351.872V587.818667C351.872 663.637333 421.546667 725.333333 507.050667 725.333333m276.309333-407.978666a21.333333 21.333333 0 0 1 21.333333 21.333333V396.842667c0 52.010667-44.245333 94.293333-99.797333 97.792V587.818667C704.896 687.189333 616.149333 768 507.050667 768 397.952 768 309.205333 687.189333 309.205333 587.818667v-93.013334C252.629333 492.330667 207.36 449.536 207.36 396.842667v-255.701334C207.36 86.826667 255.317333 42.666667 314.24 42.666667h383.488C756.693333 42.666667 804.693333 86.826667 804.693333 141.141333v69.546667a21.333333 21.333333 0 0 1-42.666666 0v-69.546667c0-30.805333-28.842667-55.808-64.298667-55.808H314.24C278.826667 85.333333 250.026667 110.336 250.026667 141.141333V396.842667c0 30.762667 28.8 55.765333 64.213333 55.765333h383.488c35.456 0 64.298667-25.002667 64.298667-55.765333v-58.154667a21.333333 21.333333 0 0 1 21.333333-21.333333"  horiz-adv-x="1024" />

    
    <glyph glyph-name="qianbao1" unicode="&#59065;" d="M736 316.8m-44.8 0a44.8 44.8 0 1 1 89.6 0 44.8 44.8 0 1 1-89.6 0ZM870.4 428.8H713.6c-61.9 0-112-50.1-112-112s50.1-112 112-112h156.8c49.5 0 89.6 40.1 89.6 89.6v44.8c0 49.5-40.1 89.6-89.6 89.6z m44.8-134.4c0-24.7-20.1-44.8-44.8-44.8H713.6c-37.1 0-67.2 30.1-67.2 67.2s30.1 67.2 67.2 67.2h156.8c24.7 0 44.8-20.1 44.8-44.8v-44.8zM870.4 182.4c-12.4 0-22.4-10-22.4-22.4v-44.8c0-49.5-40.1-89.6-89.6-89.6h-560c-49.5 0-89.6 40.1-89.6 89.6V518.4c0 49.5 40.1 89.6 89.6 89.6h560c49.5 0 89.6-40.1 89.6-89.6v-44.8c0-12.4 10-22.4 22.4-22.4 12.4 0 22.4 10 22.4 22.4v44.8c0 73.9-60.5 134.4-134.4 134.4H650l-41.9 67.3c-24.8 43-70.2 67.1-116.8 67.1-22.8 0-45.8-5.8-66.8-17.9L191.2 652.4C120.6 648.7 64 589.9 64 518.4v-403.2c0-73.9 60.5-134.4 134.4-134.4h560c73.9 0 134.4 60.5 134.4 134.4V160c0 12.4-10 22.4-22.4 22.4zM445.7 729.8c0.4 0.2 0.8 0.4 1.2 0.7 13.5 7.8 28.8 11.9 44.4 11.9 32.2 0 62.1-17.1 78-44.7 0.6-1.1 1.3-2.2 2.1-3.2l24.7-41.7H287.7l158 77z"  horiz-adv-x="1024" />

    
    <glyph glyph-name="tongji-" unicode="&#58891;" d="M279 71.6H83c-9.9 0-18 8.1-18 18V420.7c0 9.9 8.1 18 18 18h196c9.9 0 18-8.1 18-18v-331.2c0-9.9-8.1-17.9-18-17.9z m-178.1 36h160V402.7h-160v-295.1zM606.4 71.6h-196c-9.9 0-18 8.1-18 18V548.5c0 9.9 8.1 18 18 18h196c9.9 0 18-8.1 18-18v-458.9c0-10-8-18-18-18z m-178 36h160V530.5h-160v-422.9zM933.1 71.6h-196c-9.9 0-18 8.1-18 18V811.3c0 9.9 8.1 18 18 18h196c9.9 0 18-8.1 18-18v-721.8c0-9.9-8-17.9-18-17.9z m-178 36h160V793.3h-160v-685.7zM961.4-57.8h-900c-9.9 0-18 8.1-18 18s8.1 18 18 18h900c9.9 0 18-8.1 18-18s-8.1-18-18-18z"  horiz-adv-x="1024" />

    
    <glyph glyph-name="hezuohuoban" unicode="&#59366;" d="M567.808 500.224c29.696 38.4 46.592 86.528 46.592 136.704C614.4 759.808 514.56 860.16 391.168 860.16S167.936 759.808 167.936 636.928c0-49.664 16.896-97.28 46.08-136.192C138.24 438.784 59.904 292.352 38.912 215.04c-13.824-50.688-15.872-102.912-5.12-150.016 4.608-22.016 26.624-36.352 48.64-31.232 22.016 4.608 36.352 26.624 31.232 48.64-7.168 33.792-5.632 73.216 4.608 111.104 23.552 86.016 104.448 210.944 150.016 245.76 37.376-20.48 79.36-31.232 122.88-31.232 43.008 0 84.992 10.752 122.368 31.232 46.08-37.376 134.656-175.616 152.576-235.008 18.944-62.976 10.752-131.584-21.504-175.104-20.992-28.16-49.664-42.496-84.992-42.496H222.72c-22.528 0-40.96-18.432-40.96-40.96s18.432-40.96 40.96-40.96h336.896c60.928 0 114.688 27.136 151.04 75.776 47.616 64.512 60.928 159.232 34.304 247.808-15.872 51.2-100.864 206.848-177.152 271.872zM391.168 778.24C468.992 778.24 532.48 714.752 532.48 636.928c0-46.592-23.04-90.112-61.44-116.736-23.552-15.872-51.2-24.576-79.872-24.576s-56.32 8.704-79.872 24.576c-38.4 26.112-61.44 70.144-61.44 116.736C249.856 714.752 313.344 778.24 391.168 778.24zM928.768 360.96c-26.624 55.296-62.976 101.888-102.4 132.608 33.28 39.424 52.224 90.112 52.224 143.36C878.592 759.808 778.24 860.16 655.36 860.16c-22.528 0-40.96-18.432-40.96-40.96s18.432-40.96 40.96-40.96c77.824 0 141.312-63.488 141.312-141.312 0-43.52-19.968-84.48-53.76-111.104-11.776-4.096-21.504-12.8-25.6-25.6-7.168-21.504 4.096-44.544 25.6-52.224 31.744-10.752 78.848-53.248 112.64-122.88 28.16-58.368 66.56-180.736 9.216-339.968-7.68-21.504 3.072-44.544 24.576-52.224 4.608-1.536 9.216-2.56 13.824-2.56 16.896 0 32.256 10.24 38.4 27.136 67.584 187.904 20.992 333.312-12.8 403.456z"  horiz-adv-x="1024" />

    
    <glyph glyph-name="youhuiquan" unicode="&#58892;" d="M615.3 137.4c-96.7 1.1-174.4 80.6-173.4 177.2S522.5 489 619.2 487.9s174.4-80.6 173.3-177.2c-1.1-96.6-80.6-174.4-177.2-173.3z m3.5 320.1c-79.9 0.9-145.5-63.4-146.4-143.2s63.4-145.5 143.2-146.4S761.2 231.2 762.1 311c0.8 79.9-63.4 145.6-143.3 146.5zM916.3 48.2l-751.7 8.3c-38.5 0.4-69.4 32.1-69 70.5l2.8 256.8c0.1 9.6 8 17.3 17.6 17.2 9.6-0.1 17.3-8 17.2-17.6l-2.8-256.8c-0.2-19.3 15.3-35.1 34.6-35.3l751.7-8.3c19.3-0.2 35.1 15.3 35.3 34.6l0.8 75.6c-48.5 17.1-82.1 64-81.5 116.5 0.6 52.4 35.2 98.6 84 114.7l0.8 75.6c0.2 19.3-15.3 35.1-34.6 35.3l-752.2 8.3c-19 0.2-34.6-15.1-34.8-34l-0.7-63.1c-0.1-9.6-8-17.3-17.6-17.2-9.6 0.1-17.3 8-17.2 17.6l0.7 63.1c0.4 38.2 31.8 68.9 70 68.5l752.2-8.3c38.5-0.4 69.4-32.1 69-70.5l-1.1-102.9L976 394c-40.1-8.1-69.5-43.6-69.9-84.6s28.2-77.1 68-86.1l13.7-3.1-1.1-102.9c-0.3-38.6-31.9-69.5-70.4-69.1zM67.5 434.1c-7.9 0.1-15 5.6-16.8 13.7l-13.5 61.7c-8.1 37.3 15.6 74.3 52.9 82.4l735 160.4c37.6 8.2 74.8-15.7 83-53.3L930 598.4l-12.8-5.8c-14.4-6.5-26.8-16.9-35.8-30-5.4-7.9-16.3-9.9-24.2-4.5-7.9 5.4-9.9 16.3-4.5 24.2 9.9 14.4 22.7 26.4 37.5 35.4l-16.1 73.8c-4.1 18.8-22.8 30.8-41.6 26.7l-735-160.4c-18.5-4-30.3-22.4-26.3-41l13.5-61.6c2-9.4-3.9-18.7-13.3-20.7-1.3-0.3-2.6-0.5-3.9-0.4zM271.3 455.5c-9.6 0.1-17.3 8-17.2 17.6l0.3 31.5c0.1 9.6 8 17.3 17.6 17.2 9.6-0.1 17.3-8 17.2-17.6l-0.3-31.5c-0.1-9.6-8-17.3-17.6-17.2zM270.3 369.4c-9.6 0.1-17.3 8-17.2 17.6l0.3 31.5c0.1 9.6 8 17.3 17.6 17.2 9.6-0.1 17.3-8 17.2-17.6l-0.3-31.5c-0.1-9.6-8-17.3-17.6-17.2zM269.4 283.2c-9.6 0.1-17.3 8-17.2 17.6l0.3 31.5c0.1 9.6 8 17.3 17.6 17.2s17.3-8 17.2-17.6l-0.3-31.5c-0.1-9.6-8-17.3-17.6-17.2zM268.4 197c-9.6 0.1-17.3 8-17.2 17.6l0.3 31.5c0.1 9.6 8 17.3 17.6 17.2 9.6-0.1 17.3-8 17.2-17.6l-0.3-31.5c-0.1-9.6-8-17.3-17.6-17.2zM267.5 110.8c-9.6 0.1-17.3 8-17.2 17.6l0.3 31.5c0.1 9.6 8 17.3 17.6 17.2s17.3-8 17.2-17.6l-0.3-31.5c-0.1-9.6-8-17.3-17.6-17.2zM611.9 330.2c-4.4 0-8.6 2.3-11 6.3l-31.4 51.7c-3.7 6.2-1.8 14.2 4.4 17.9 6.2 3.7 14.2 1.8 17.9-4.4l31.4-51.7c3.7-6.2 1.8-14.2-4.4-17.9-2.2-1.3-4.6-1.9-6.9-1.9zM621.9 330.1c-2.4 0-4.7 0.7-6.9 2-6.1 3.9-7.9 11.9-4 18l32.5 51c3.9 6.1 11.9 7.9 18 4 6.1-3.9 7.9-11.9 4-18l-32.5-51c-2.4-3.9-6.7-6.1-11.1-6zM664.4 310.9l-94.4 1c-7.2 0.1-13 6-12.9 13.2s6 13 13.2 12.9l94.4-1c7.2-0.1 13-6 12.9-13.2-0.1-7.2-6-13-13.2-12.9zM663.9 260.9l-94.4 1c-7.2 0.1-13 6-12.9 13.2 0.1 7.2 6 13 13.2 12.9l94.4-1c7.2-0.1 13-6 12.9-13.2-0.1-7.2-6-13-13.2-12.9zM616.2 217.7c-7.2 0.1-13 6-12.9 13.2l1.1 99.9c0.1 7.2 6 13 13.2 12.9 7.2-0.1 13-6 12.9-13.2l-1.1-99.9c-0.1-7.2-6-13-13.2-12.9z"  horiz-adv-x="1024" />

    
    <glyph glyph-name="bianji" unicode="&#58883;" d="M909.789792 789.242152L452.276579 331.212817a70.421939 70.421939 0 0 0-30.27914-18.580381c-9.921006-2.580608-18.752422-1.433671-24.315067 4.128974-11.067943 11.067943-4.587748 35.55505 14.508755 54.7089l457.513213 457.971988c19.039156 19.096503 43.526263 25.634044 54.594207 14.508754 11.067943-11.12529 4.587748-35.612397-14.508755-54.7089zM115.765231 780.52543c-56.601346 6.136114-57.346856-48.630133-57.346856-57.346855v-688.162267c0-8.716722 5.677339-60.959707 57.346856-57.346855h688.162266c54.7089-2.695302 57.346856 48.630133 57.346855 57.346855V493.791153l57.46155 15.999772v-502.415801c0-48.056665-39.053209-87.16722-87.109874-87.16722H87.952006a87.224567 87.224567 0 0 0-87.109874 87.16722V750.9918c0 48.056665 39.053209 87.16722 87.109874 87.16722h502.186413L574.540075 780.52543H115.765231z"  horiz-adv-x="1024" />

    


  </font>
</defs>
</svg>
